<svg width="70" height="100" viewBox="0 0 70 100" fill="none" xmlns="http://www.w3.org/2000/svg">
<path d="M35.125 0.000488281C26.0082 0.000488281 17.2648 3.62213 10.8182 10.0687C4.37165 16.5153 0.750003 25.2587 0.750003 34.3755L0.750003 78.4192C0.747285 83.4773 2.52131 88.3757 5.76231 92.2591C9.00332 96.1424 13.5054 98.764 18.4824 99.6661C23.4594 100.568 28.5952 99.6934 32.993 97.1946C37.3907 94.6957 40.7711 90.7315 42.5438 85.9942L45.7312 77.4755C46.7445 74.7861 48.1561 72.2641 49.9187 69.9942L62.4688 53.863C66.3037 48.9312 68.6775 43.0221 69.32 36.8079C69.9625 30.5937 68.848 24.324 66.1031 18.7119C63.3583 13.0999 59.0935 8.37089 53.7938 5.06298C48.4941 1.75507 42.3723 0.00105598 36.125 0.000488281L35.125 0.000488281ZM25.75 34.3755V51.2192C26.45 50.8442 27.1438 50.4505 27.825 50.0192C29.8688 48.7192 31.4313 47.2692 32.325 45.4755C32.6963 44.7337 33.3471 44.1698 34.1341 43.9078C34.9212 43.6459 35.7801 43.7073 36.5219 44.0786C37.2637 44.4499 37.8276 45.1007 38.0895 45.8877C38.3515 46.6748 38.2901 47.5337 37.9187 48.2755C36.3187 51.4817 33.7125 53.6817 31.175 55.2942C29.4242 56.3687 27.6129 57.3411 25.75 58.2067V71.8755C25.75 72.7043 25.4208 73.4991 24.8347 74.0852C24.2487 74.6712 23.4538 75.0005 22.625 75.0005C21.7962 75.0005 21.0013 74.6712 20.4153 74.0852C19.8292 73.4991 19.5 72.7043 19.5 71.8755V34.3755C19.5 30.2315 21.1462 26.2572 24.0765 23.3269C27.0067 20.3967 30.981 18.7505 35.125 18.7505C39.269 18.7505 43.2433 20.3967 46.1735 23.3269C49.1038 26.2572 50.75 30.2315 50.75 34.3755V37.5005C50.75 38.3293 50.4208 39.1241 49.8347 39.7102C49.2487 40.2962 48.4538 40.6255 47.625 40.6255C46.7962 40.6255 46.0013 40.2962 45.4153 39.7102C44.8292 39.1241 44.5 38.3293 44.5 37.5005V34.3755C44.5 31.8891 43.5123 29.5045 41.7541 27.7464C39.996 25.9882 37.6114 25.0005 35.125 25.0005C32.6386 25.0005 30.254 25.9882 28.4959 27.7464C26.7377 29.5045 25.75 31.8891 25.75 34.3755Z" fill="black" fill-opacity="0.3"/>
</svg>
