<svg width="132" height="44" viewBox="0 0 132 44" fill="none" xmlns="http://www.w3.org/2000/svg">
<path d="M6.5 25.25V44H0.25V0.25H12.75V12.75H31.5V0.25H44V44H31.5V25.25H25.25V37.75H12.75V25.25H6.5ZM75.25 25.25V6.5H62.75V25.25H75.25ZM62.75 31.5V44H50.25V6.5H56.5V0.25H81.5V6.5H87.75V44H75.25V31.5H62.75ZM112.75 12.75H119V0.25H131.5V12.75H125.25V19H119V25.25H125.25V31.5H131.5V44H119V31.5H112.75V25.25H106.5V44H94V25.25H100.25V19H106.5V12.75H100.25V6.5H94V0.25H106.5V6.5H112.75V12.75Z" fill="black" fill-opacity="0.3"/>
</svg>
