<svg width="146" height="140" viewBox="0 0 146 140" fill="none" xmlns="http://www.w3.org/2000/svg">
<path d="M59.9019 8.46896C65.6242 -1.78417 80.3758 -1.78415 86.0982 8.46899L98.3403 30.4042C100.486 34.2493 104.214 36.9573 108.534 37.8101L133.178 42.6747C144.698 44.9485 149.256 58.9782 141.273 67.5889L124.195 86.0102C121.201 89.2394 119.777 93.621 120.301 97.9932L123.29 122.935C124.688 134.593 112.753 143.264 102.097 138.333L79.2998 127.782C75.3035 125.933 70.6965 125.933 66.7002 127.782L43.9029 138.333C33.2468 143.264 21.3125 134.593 22.7096 122.935L25.6987 97.9932C26.2227 93.6209 24.799 89.2394 21.8052 86.0102L4.72662 67.5888C-3.25639 58.9782 1.30214 44.9485 12.8217 42.6747L37.4664 37.8101C41.7865 36.9573 45.5137 34.2493 47.6597 30.4042L59.9019 8.46896Z" fill="black" fill-opacity="0.2"/>
</svg>
