<svg width="147" height="140" viewBox="0 0 147 140" fill="none" xmlns="http://www.w3.org/2000/svg">
<path d="M60.4189 8.31026C66.1498 -1.90212 80.8502 -1.90212 86.5811 8.31026L98.9897 30.4224C101.141 34.2566 104.867 36.9538 109.181 37.8007L134.031 42.679C145.578 44.9458 150.137 59.0189 142.114 67.6263L124.985 86.0005C121.97 89.2345 120.536 93.6338 121.065 98.0232L124.072 122.982C125.476 134.63 113.566 143.308 102.909 138.402L79.7714 127.753C75.7911 125.922 71.2088 125.922 67.2286 127.753L44.0913 138.402C33.4337 143.308 21.524 134.63 22.9276 122.982L25.9352 98.0232C26.4641 93.6338 25.0297 89.2345 22.0149 86.0005L4.88636 67.6262C-3.13746 59.0189 1.42199 44.9458 12.9688 42.679L37.8187 37.8007C42.1331 36.9538 45.8586 34.2566 48.0103 30.4224L60.4189 8.31026Z" fill="#F9CB38"/>
</svg>
