<svg width="25" height="35" viewBox="0 0 25 35" fill="none" xmlns="http://www.w3.org/2000/svg">
<g filter="url(#filter0_d_1_8524)">
<path d="M22.0977 8.69834C21.5645 7.53291 20.8065 6.48555 19.8392 5.59053C17.8739 3.76621 15.265 2.76074 12.5 2.76074C9.73496 2.76074 7.12607 3.76621 5.16084 5.58672C4.19346 6.48555 3.43555 7.5291 2.90234 8.69834C2.34629 9.91709 2.06445 11.2082 2.06445 12.5412V13.5695C2.06445 13.8057 2.25488 13.9961 2.49102 13.9961H4.54766C4.78379 13.9961 4.97422 13.8057 4.97422 13.5695V12.5412C4.97422 8.75166 8.34863 5.67051 12.5 5.67051C16.6514 5.67051 20.0258 8.75166 20.0258 12.5412C20.0258 14.0951 19.4735 15.5576 18.4262 16.7764C17.3902 17.9837 15.9277 18.8482 14.3091 19.2139C13.3836 19.4233 12.5495 19.9451 11.9592 20.6916C11.3709 21.4355 11.0503 22.3559 11.0489 23.3043V24.5002C11.0489 24.7363 11.2394 24.9268 11.4755 24.9268H13.5321C13.7683 24.9268 13.9587 24.7363 13.9587 24.5002V23.3043C13.9587 22.7063 14.3738 22.1808 14.9489 22.0513C17.1731 21.5485 19.1917 20.3488 20.6352 18.673C21.3626 17.8237 21.9301 16.8792 22.3224 15.8547C22.7299 14.7921 22.9355 13.6762 22.9355 12.5412C22.9355 11.2082 22.6537 9.91328 22.0977 8.69834V8.69834ZM12.5 27.9736C11.3231 27.9736 10.3672 28.9296 10.3672 30.1064C10.3672 31.2833 11.3231 32.2393 12.5 32.2393C13.6769 32.2393 14.6328 31.2833 14.6328 30.1064C14.6328 28.9296 13.6769 27.9736 12.5 27.9736Z" fill="white"/>
</g>
<defs>
<filter id="filter0_d_1_8524" x="0.0644531" y="0.760742" width="24.8711" height="33.4785" filterUnits="userSpaceOnUse" color-interpolation-filters="sRGB">
<feFlood flood-opacity="0" result="BackgroundImageFix"/>
<feColorMatrix in="SourceAlpha" type="matrix" values="0 0 0 0 0 0 0 0 0 0 0 0 0 0 0 0 0 0 127 0" result="hardAlpha"/>
<feOffset/>
<feGaussianBlur stdDeviation="1"/>
<feComposite in2="hardAlpha" operator="out"/>
<feColorMatrix type="matrix" values="0 0 0 0 0 0 0 0 0 0 0 0 0 0 0 0 0 0 0.25 0"/>
<feBlend mode="normal" in2="BackgroundImageFix" result="effect1_dropShadow_1_8524"/>
<feBlend mode="normal" in="SourceGraphic" in2="effect1_dropShadow_1_8524" result="shape"/>
</filter>
</defs>
</svg>
