<svg width="100" height="80" viewBox="0 0 100 80" fill="none" xmlns="http://www.w3.org/2000/svg">
<g clip-path="url(#clip0_37_6)">
<path d="M100 5C100 2.23858 97.7614 0 95 0H0V74H95C97.7614 74 100 71.7614 100 69V5Z" fill="white"/>
<g clip-path="url(#clip1_37_6)">
<path d="M100 5.19206V-0.5L50 -0.537109V5.19206H100ZM0 56.7546H100V62.4837H0V56.7546ZM50 33.8379H100V39.5671H50V33.8379ZM50 22.3796H100V28.1087H50V22.3796ZM0 45.2962H100V51.0254H0V45.2962ZM0 74.2025L44.4444 74.0723C44.4444 74.0723 86.3889 74.4421 100 75V67.9814H49L0 68.2129V74.2025ZM50 10.9212H100V16.6504H50V10.9212Z" fill="#B22334"/>
<path d="M0.47619 64.2777C0.47619 64.7407 0.412302 64.9429 0.47619 65.2036C0.47619 65.6666 0.47619 65.2036 0.47619 65.6666C0.47619 66.5925 0.47619 67.9814 0.47619 68.4444H1.42857L100 67.9989C100 67.9989 100 68.9073 100 67.9814C100 67.0555 100 65.6666 100 65.6666V64.2777C100 64.2777 100 62.9486 100 62.2812H0.47619C0.47619 62.9486 0.47619 63.8147 0.47619 64.2777ZM0 50.8228H100V56.552H0V50.8228ZM0 39.3645V45.0937H100V39.3645H50H0ZM50 27.9062H100V33.6353H50V27.9062ZM50 16.4478H100V22.177H50V16.4478ZM0.355556 7.98013C0.425 7.68794 0.522222 7.41008 0.611111 7.12935C0.514647 7.40921 0.42939 7.69304 0.355556 7.98013ZM50 10.7187H100C100 10.0512 100.614 9.35521 100.5 8.72214C100.403 8.16099 100.686 7.40725 100.5 6.87029C100.259 6.13069 100.374 5.66739 100 4.9895H50V10.7187Z" fill="white"/>
<path d="M50 -0.0741909L11 -0.0741493H2.40803e-05C2.40803e-05 -0.0741493 0 7.67971 0 10.7186V39.3645H50V-0.0741909Z" fill="#3C3B6E"/>
<path d="M5.55835 7.06919L7.27502 8.35539L6.61946 10.4322L8.33335 9.14888L10.05 10.4322L9.39446 8.35539L11.1111 7.06919H8.98891L8.33335 4.9895L7.68057 7.06919H5.55835ZM11.1139 12.7984L12.8306 14.0846L12.175 16.1614L13.8889 14.878L15.6056 16.1614L14.95 14.0846L16.6667 12.7984H14.5445L13.8889 10.7187L13.2361 12.7984H11.1139ZM22.225 12.7984L23.9417 14.0846L23.2861 16.1614L25 14.878L26.7167 16.1614L26.0611 14.0846L27.7778 12.7984H25.6556L25 10.7187L24.3472 12.7984H22.225ZM33.3361 12.7984L35.0528 14.0846L34.3972 16.1614L36.1111 14.878L37.8278 16.1614L37.1722 14.0846L38.8889 12.7984H36.7667L36.1111 10.7187L35.4584 12.7984H33.3361ZM11.1139 24.2567L12.8306 25.5429L12.175 27.6197L13.8889 26.3364L15.6056 27.6197L14.95 25.5429L16.6667 24.2567H14.5445L13.8889 22.177L13.2361 24.2567H11.1139ZM22.225 24.2567L23.9417 25.5429L23.2861 27.6197L25 26.3364L26.7167 27.6197L26.0611 25.5429L27.7778 24.2567H25.6556L25 22.177L24.3472 24.2567H22.225ZM33.3361 24.2567L35.0528 25.5429L34.3972 27.6197L36.1111 26.3364L37.8278 27.6197L37.1722 25.5429L38.8889 24.2567H36.7667L36.1111 22.177L35.4584 24.2567H33.3361ZM16.6695 7.06919L18.3861 8.35539L17.7306 10.4322L19.4445 9.14888L21.1611 10.4322L20.5056 8.35539L22.2222 7.06919H20.1L19.4445 4.9895L18.7917 7.06919H16.6695ZM27.7806 7.06919L29.4972 8.35539L28.8417 10.4322L30.5556 9.14888L32.2722 10.4322L31.6167 8.35539L33.3334 7.06919H31.2111L30.5556 4.9895L29.9028 7.06919H27.7806ZM38.8917 7.06919L40.6084 8.35539L39.9528 10.4322L41.6667 9.14888L43.3834 10.4322L42.7278 8.35539L44.4445 7.06919H42.3222L41.6667 4.9895L41.0139 7.06919H38.8917ZM5.55835 18.5275L7.27502 19.8137L6.61946 21.8905L8.33335 20.6072L10.05 21.8905L9.39446 19.8137L11.1111 18.5275H8.98891L8.33335 16.4478L7.68057 18.5275H5.55835ZM17.7306 21.8905L19.4445 20.6072L21.1611 21.8905L20.5056 19.8137L22.2222 18.5275H20.1L19.4445 16.4478L18.7917 18.5275H16.6695L18.3861 19.8137L17.7306 21.8905ZM27.7806 18.5275L29.4972 19.8137L28.8417 21.8905L30.5556 20.6072L32.2722 21.8905L31.6167 19.8137L33.3334 18.5275H31.2111L30.5556 16.4478L29.9028 18.5275H27.7806ZM38.8917 18.5275L40.6084 19.8137L39.9528 21.8905L41.6667 20.6072L43.3834 21.8905L42.7278 19.8137L44.4445 18.5275H42.3222L41.6667 16.4478L41.0139 18.5275H38.8917ZM5.55835 29.9859L7.27502 31.272L6.61946 33.3489L8.33335 32.0655L10.05 33.3489L9.39446 31.272L11.1111 29.9859H8.98891L8.33335 27.9062L7.68057 29.9859H5.55835ZM17.7306 33.3489L19.4445 32.0655L21.1611 33.3489L20.5056 31.272L22.2222 29.9859H20.1L19.4445 27.9062L18.7917 29.9859H16.6695L18.3861 31.272L17.7306 33.3489ZM27.7806 29.9859L29.4972 31.272L28.8417 33.3489L30.5556 32.0655L32.2722 33.3489L31.6167 31.272L33.3334 29.9859H31.2111L30.5556 27.9062L29.9028 29.9859H27.7806ZM38.8917 29.9859L40.6084 31.272L39.9528 33.3489L41.6667 32.0655L43.3834 33.3489L42.7278 31.272L44.4445 29.9859H42.3222L41.6667 27.9062L41.0139 29.9859H38.8917Z" fill="white"/>
</g>
</g>
<defs>
<clipPath id="clip0_37_6">
<path d="M0 0H95C97.7614 0 100 2.23858 100 5V75C100 77.7614 97.7614 80 95 80H0V0Z" fill="white"/>
</clipPath>
<clipPath id="clip1_37_6">
<path d="M0 -1H95C97.7614 -1 100 1.23858 100 4V69C100 71.7614 97.7614 74 95 74H0V-1Z" fill="white"/>
</clipPath>
</defs>
</svg>
