<svg width="302" height="302" viewBox="0 0 302 302" fill="none" xmlns="http://www.w3.org/2000/svg">
<g clip-path="url(#clip0_1_8518)">
<path d="M147.365 0.000109367C122.916 -0.058529 78.4103 23.4733 76.9995 44.3941C75.5886 65.3149 79.8496 66.6042 81.8314 67.7488H104.783C110.028 55.9069 116.415 48.9843 133.171 49.1254C149.927 49.2666 168.307 70.2267 160.553 88.7881C152.798 107.35 145.633 113.815 136.091 133.887C126.549 153.959 123.362 184.278 135.889 209.487L164.177 209.991C157.175 174.005 194.236 141.945 208.973 119.793C223.711 97.642 225.112 89.1991 225.281 70.8695C225.151 53.4758 218.853 36.0939 205.148 21.9454C191.443 7.79699 171.815 0.0589994 147.365 0.000109367ZM148.775 233.446C129.856 233.446 114.548 248.754 114.548 267.673C114.548 286.592 129.856 302 148.775 302C167.694 302 183.001 286.592 183.001 267.673C183.001 248.754 167.694 233.446 148.775 233.446V233.446Z" fill="black" fill-opacity="0.2"/>
</g>
<defs>
<clipPath id="clip0_1_8518">
<rect width="302" height="302" fill="white"/>
</clipPath>
</defs>
</svg>
